<mxfile host="app.diagrams.net" agent="Mozilla/5.0 (Windows NT 10.0; Win64; x64) AppleWebKit/537.36 (KHTML, like Gecko) Chrome/141.0.0.0 Safari/537.36" version="28.2.7">
  <diagram name="PÃ¡gina-1" id="GBhrRx_rSU__b1twdAKV">
    <mxGraphModel dx="1906" dy="2655" grid="1" gridSize="10" guides="1" tooltips="1" connect="1" arrows="1" fold="1" page="1" pageScale="1" pageWidth="1169" pageHeight="1654" math="0" shadow="0">
      <root>
        <mxCell id="0" />
        <mxCell id="1" parent="0" />
        <mxCell id="vPcDiqETE8o4eRlCnlg2-1" value="" style="whiteSpace=wrap;html=1;aspect=fixed;" vertex="1" parent="1">
          <mxGeometry x="240" y="235" width="665" height="665" as="geometry" />
        </mxCell>
        <mxCell id="vPcDiqETE8o4eRlCnlg2-2" value="" style="triangle;whiteSpace=wrap;html=1;direction=north;" vertex="1" parent="1">
          <mxGeometry x="347.5" y="310" width="450" height="490" as="geometry" />
        </mxCell>
        <mxCell id="vPcDiqETE8o4eRlCnlg2-3" value="" style="image;html=1;image=img/lib/clip_art/networking/Wireless_Router_128x128.png" vertex="1" parent="1">
          <mxGeometry x="506" y="80" width="133" height="120" as="geometry" />
        </mxCell>
        <mxCell id="vPcDiqETE8o4eRlCnlg2-8" style="edgeStyle=orthogonalEdgeStyle;rounded=0;orthogonalLoop=1;jettySize=auto;html=1;exitX=1;exitY=0.5;exitDx=0;exitDy=0;exitPerimeter=0;entryX=0.25;entryY=1;entryDx=0;entryDy=0;" edge="1" parent="1" source="vPcDiqETE8o4eRlCnlg2-4" target="vPcDiqETE8o4eRlCnlg2-3">
          <mxGeometry relative="1" as="geometry" />
        </mxCell>
        <mxCell id="vPcDiqETE8o4eRlCnlg2-4" value="" style="verticalLabelPosition=bottom;html=1;verticalAlign=top;align=center;strokeColor=none;fillColor=#00BEF2;shape=mxgraph.azure.computer;pointerEvents=1;" vertex="1" parent="1">
          <mxGeometry x="300" y="340" width="110" height="90" as="geometry" />
        </mxCell>
        <mxCell id="vPcDiqETE8o4eRlCnlg2-9" style="edgeStyle=orthogonalEdgeStyle;rounded=0;orthogonalLoop=1;jettySize=auto;html=1;exitX=0.5;exitY=0;exitDx=0;exitDy=0;entryX=0.5;entryY=1;entryDx=0;entryDy=0;" edge="1" parent="1" source="vPcDiqETE8o4eRlCnlg2-5" target="vPcDiqETE8o4eRlCnlg2-3">
          <mxGeometry relative="1" as="geometry" />
        </mxCell>
        <mxCell id="vPcDiqETE8o4eRlCnlg2-5" value="" style="image;html=1;image=img/lib/clip_art/computers/Server_Rack_128x128.png" vertex="1" parent="1">
          <mxGeometry x="532.5" y="420" width="80" height="160" as="geometry" />
        </mxCell>
        <mxCell id="vPcDiqETE8o4eRlCnlg2-6" value="Desktop/rodri&lt;br&gt;Windows 10 Home&lt;div&gt;&lt;br&gt;IP: 192.168.1.3/24&lt;/div&gt;" style="text;html=1;whiteSpace=wrap;strokeColor=none;fillColor=none;align=center;verticalAlign=middle;rounded=0;" vertex="1" parent="1">
          <mxGeometry x="280" y="440" width="150" height="80" as="geometry" />
        </mxCell>
        <mxCell id="vPcDiqETE8o4eRlCnlg2-10" value="Administrator&lt;br&gt;Windows Server 2019 Standard&lt;div&gt;&lt;br&gt;IP: 192.168.1.2/24&lt;/div&gt;" style="text;html=1;whiteSpace=wrap;strokeColor=none;fillColor=none;align=center;verticalAlign=middle;rounded=0;" vertex="1" parent="1">
          <mxGeometry x="467.5" y="570" width="210" height="100" as="geometry" />
        </mxCell>
        <mxCell id="vPcDiqETE8o4eRlCnlg2-11" value="pfSense.home.arpa&lt;br&gt;Free BSD&lt;br&gt;&lt;br&gt;IP: 192.168.1.1/24" style="text;html=1;whiteSpace=wrap;strokeColor=none;fillColor=none;align=center;verticalAlign=middle;rounded=0;" vertex="1" parent="1">
          <mxGeometry x="502.5" y="-20" width="140" height="110" as="geometry" />
        </mxCell>
        <mxCell id="vPcDiqETE8o4eRlCnlg2-12" value="&lt;b&gt;WORKGROUP 1&lt;/b&gt;&lt;div&gt;&lt;br&gt;&lt;/div&gt;" style="text;html=1;whiteSpace=wrap;strokeColor=none;fillColor=none;align=center;verticalAlign=middle;rounded=0;fontSize=16;" vertex="1" parent="1">
          <mxGeometry x="280" y="235" width="150" height="80" as="geometry" />
        </mxCell>
        <mxCell id="vPcDiqETE8o4eRlCnlg2-13" value="&lt;b&gt;DOMAIN 1&lt;/b&gt;" style="text;html=1;whiteSpace=wrap;strokeColor=none;fillColor=none;align=center;verticalAlign=middle;rounded=0;fontSize=16;" vertex="1" parent="1">
          <mxGeometry x="440" y="700" width="280" height="30" as="geometry" />
        </mxCell>
      </root>
    </mxGraphModel>
  </diagram>
</mxfile>
